<svg width="16" height="15" viewBox="0 0 16 15" fill="none" xmlns="http://www.w3.org/2000/svg">
  <path fill-rule="evenodd" clip-rule="evenodd"
    d="M3.86376 1.47941C6.8473 -0.718766 11.0674 -0.46703 13.7671 2.23262C16.7445 5.20792 16.7441 10.0351 13.7671 13.0121L13.1743 13.6049L12.1362 12.5669C9.1527 14.7651 4.93258 14.5133 2.23293 11.8137C-0.74431 8.83644 -0.74431 4.01142 2.23293 1.03418L2.82573 0.441385L3.86376 1.47941ZM12.5815 3.41821C10.325 1.16172 6.70606 1.0977 4.3729 3.22799L3.78129 3.76815L2.86717 2.85402C1.11351 5.18355 1.29729 8.50685 3.41853 10.6281C5.67502 12.8846 9.29393 12.9486 11.6271 10.8183L12.2187 10.2781L13.1328 11.1923C14.8866 8.86236 14.7025 5.53757 12.5817 3.41845L12.5815 3.41821Z"
    fill="white" />
  <path d="M6.48106 5.11293H5.16257V9.21204H6.48106V5.11293Z" fill="white" />
  <path d="M8.67641 5.11293H7.35792V9.21204H8.67641V5.11293Z" fill="white" />
  <path d="M10.8717 5.11293H9.55326V9.21204H10.8717V5.11293Z" fill="white" />
</svg>
