<svg width="24" height="24" viewBox="0 0 24 24" fill="none" xmlns="http://www.w3.org/2000/svg">
<rect y="3.42993" width="24" height="17.1429" rx="2" fill="white"/>
<mask id="mask0_897_4071" style="mask-type:luminance" maskUnits="userSpaceOnUse" x="0" y="3" width="24" height="18">
<rect y="3.42993" width="24" height="17.1429" rx="2" fill="white"/>
</mask>
<g mask="url(#mask0_897_4071)">
<rect y="3.42993" width="24" height="17.1429" fill="#05AB41"/>
<path fill-rule="evenodd" clip-rule="evenodd" d="M3.15066 12.561C2.74466 12.2983 2.74466 11.7043 3.15066 11.4416L11.6378 5.94992C11.8582 5.80732 12.1417 5.80732 12.3621 5.94992L20.8492 11.4416C21.2552 11.7043 21.2552 12.2983 20.8492 12.561L12.3621 18.0527C12.1417 18.1953 11.8582 18.1953 11.6378 18.0527L3.15066 12.561Z" fill="#FDD216"/>
<path fill-rule="evenodd" clip-rule="evenodd" d="M12 16.0012C14.2091 16.0012 16 14.2104 16 12.0012C16 9.79208 14.2091 8.00122 12 8.00122C9.79086 8.00122 8 9.79208 8 12.0012C8 14.2104 9.79086 16.0012 12 16.0012Z" fill="#053087"/>
<mask id="mask1_897_4071" style="mask-type:luminance" maskUnits="userSpaceOnUse" x="8" y="8" width="8" height="9">
<path fill-rule="evenodd" clip-rule="evenodd" d="M12 16.0012C14.2091 16.0012 16 14.2104 16 12.0012C16 9.79208 14.2091 8.00122 12 8.00122C9.79086 8.00122 8 9.79208 8 12.0012C8 14.2104 9.79086 16.0012 12 16.0012Z" fill="white"/>
</mask>
<g mask="url(#mask1_897_4071)">
<path fill-rule="evenodd" clip-rule="evenodd" d="M7.94624 11.4736C7.94486 11.4743 7.94459 11.4744 7.94529 11.4738L7.42719 11.8934L6.5881 10.8572L7.1062 10.4377C7.42654 10.1782 7.84216 10.1006 8.19512 10.0794C8.56774 10.0571 8.98971 10.092 9.42134 10.155C10.2859 10.2813 11.2998 10.5376 12.244 10.7895C13.2411 11.0555 14.2513 11.4643 15.0801 11.8879C15.4952 12.1001 15.8731 12.3201 16.1864 12.5336C16.4889 12.7397 16.7702 12.9656 16.9574 13.1968L17.377 13.7149L16.3408 14.554L15.9212 14.0359C15.8572 13.9569 15.7035 13.818 15.4357 13.6355C15.1786 13.4603 14.8508 13.2681 14.4733 13.0752C13.7171 12.6887 12.7949 12.3164 11.9003 12.0777C10.9527 11.825 10.0074 11.5881 9.22873 11.4744C8.83874 11.4175 8.51807 11.3958 8.27495 11.4104C8.04114 11.4244 7.9574 11.4678 7.94624 11.4736Z" fill="white"/>
</g>
</g>
</svg>
