<svg width="24" height="24" viewBox="0 0 24 24" fill="none" xmlns="http://www.w3.org/2000/svg">
<rect y="3.42993" width="24" height="17.1429" rx="2" fill="white"/>
<mask id="mask0_897_4038" style="mask-type:luminance" maskUnits="userSpaceOnUse" x="0" y="3" width="24" height="18">
<rect y="3.42993" width="24" height="17.1429" rx="2" fill="white"/>
</mask>
<g mask="url(#mask0_897_4038)">
<path fill-rule="evenodd" clip-rule="evenodd" d="M24 3.42993H0V4.57279H24V3.42993ZM24 5.71565H0V6.8585H24V5.71565ZM0 8.00136H24V9.14422H0V8.00136ZM24 10.2871H0V11.4299H24V10.2871ZM0 12.5728H24V13.7156H0V12.5728ZM24 14.8585H0V16.0014H24V14.8585ZM0 17.1442H24V18.2871H0V17.1442ZM24 19.4299H0V20.5728H24V19.4299Z" fill="#D02F44"/>
<rect y="3.42993" width="10.2857" height="8" fill="#46467F"/>
<g filter="url(#filter0_d_897_4038)">
<path fill-rule="evenodd" clip-rule="evenodd" d="M2.28568 5.14418C2.28568 5.45977 2.02984 5.71561 1.71425 5.71561C1.39866 5.71561 1.14282 5.45977 1.14282 5.14418C1.14282 4.82859 1.39866 4.57275 1.71425 4.57275C2.02984 4.57275 2.28568 4.82859 2.28568 5.14418ZM4.57139 5.14418C4.57139 5.45977 4.31556 5.71561 3.99997 5.71561C3.68437 5.71561 3.42854 5.45977 3.42854 5.14418C3.42854 4.82859 3.68437 4.57275 3.99997 4.57275C4.31556 4.57275 4.57139 4.82859 4.57139 5.14418ZM6.28568 5.71561C6.60127 5.71561 6.85711 5.45977 6.85711 5.14418C6.85711 4.82859 6.60127 4.57275 6.28568 4.57275C5.97009 4.57275 5.71425 4.82859 5.71425 5.14418C5.71425 5.45977 5.97009 5.71561 6.28568 5.71561ZM9.14282 5.14418C9.14282 5.45977 8.88699 5.71561 8.57139 5.71561C8.2558 5.71561 7.99997 5.45977 7.99997 5.14418C7.99997 4.82859 8.2558 4.57275 8.57139 4.57275C8.88699 4.57275 9.14282 4.82859 9.14282 5.14418ZM2.85711 6.85847C3.1727 6.85847 3.42854 6.60263 3.42854 6.28704C3.42854 5.97145 3.1727 5.71561 2.85711 5.71561C2.54152 5.71561 2.28568 5.97145 2.28568 6.28704C2.28568 6.60263 2.54152 6.85847 2.85711 6.85847ZM5.71425 6.28704C5.71425 6.60263 5.45841 6.85847 5.14282 6.85847C4.82723 6.85847 4.57139 6.60263 4.57139 6.28704C4.57139 5.97145 4.82723 5.71561 5.14282 5.71561C5.45841 5.71561 5.71425 5.97145 5.71425 6.28704ZM7.42854 6.85847C7.74413 6.85847 7.99996 6.60263 7.99996 6.28704C7.99996 5.97145 7.74413 5.71561 7.42854 5.71561C7.11295 5.71561 6.85711 5.97145 6.85711 6.28704C6.85711 6.60263 7.11295 6.85847 7.42854 6.85847ZM9.14282 7.4299C9.14282 7.74549 8.88699 8.00133 8.57139 8.00133C8.2558 8.00133 7.99997 7.74549 7.99997 7.4299C7.99997 7.11431 8.2558 6.85847 8.57139 6.85847C8.88699 6.85847 9.14282 7.11431 9.14282 7.4299ZM6.28568 8.00133C6.60127 8.00133 6.85711 7.74549 6.85711 7.4299C6.85711 7.11431 6.60127 6.85847 6.28568 6.85847C5.97009 6.85847 5.71425 7.11431 5.71425 7.4299C5.71425 7.74549 5.97009 8.00133 6.28568 8.00133ZM4.57139 7.4299C4.57139 7.74549 4.31556 8.00133 3.99997 8.00133C3.68437 8.00133 3.42854 7.74549 3.42854 7.4299C3.42854 7.11431 3.68437 6.85847 3.99997 6.85847C4.31556 6.85847 4.57139 7.11431 4.57139 7.4299ZM1.71425 8.00133C2.02984 8.00133 2.28568 7.74549 2.28568 7.4299C2.28568 7.11431 2.02984 6.85847 1.71425 6.85847C1.39866 6.85847 1.14282 7.11431 1.14282 7.4299C1.14282 7.74549 1.39866 8.00133 1.71425 8.00133ZM3.42854 8.57275C3.42854 8.88835 3.1727 9.14418 2.85711 9.14418C2.54152 9.14418 2.28568 8.88835 2.28568 8.57275C2.28568 8.25716 2.54152 8.00133 2.85711 8.00133C3.1727 8.00133 3.42854 8.25716 3.42854 8.57275ZM5.14282 9.14418C5.45841 9.14418 5.71425 8.88835 5.71425 8.57275C5.71425 8.25716 5.45841 8.00133 5.14282 8.00133C4.82723 8.00133 4.57139 8.25716 4.57139 8.57275C4.57139 8.88835 4.82723 9.14418 5.14282 9.14418ZM7.99996 8.57275C7.99996 8.88835 7.74413 9.14418 7.42854 9.14418C7.11295 9.14418 6.85711 8.88835 6.85711 8.57275C6.85711 8.25716 7.11295 8.00133 7.42854 8.00133C7.74413 8.00133 7.99996 8.25716 7.99996 8.57275ZM8.57139 10.287C8.88699 10.287 9.14282 10.0312 9.14282 9.71561C9.14282 9.40002 8.88699 9.14418 8.57139 9.14418C8.2558 9.14418 7.99997 9.40002 7.99997 9.71561C7.99997 10.0312 8.2558 10.287 8.57139 10.287ZM6.85711 9.71561C6.85711 10.0312 6.60127 10.287 6.28568 10.287C5.97009 10.287 5.71425 10.0312 5.71425 9.71561C5.71425 9.40002 5.97009 9.14418 6.28568 9.14418C6.60127 9.14418 6.85711 9.40002 6.85711 9.71561ZM3.99997 10.287C4.31556 10.287 4.57139 10.0312 4.57139 9.71561C4.57139 9.40002 4.31556 9.14418 3.99997 9.14418C3.68437 9.14418 3.42854 9.40002 3.42854 9.71561C3.42854 10.0312 3.68437 10.287 3.99997 10.287ZM2.28568 9.71561C2.28568 10.0312 2.02984 10.287 1.71425 10.287C1.39866 10.287 1.14282 10.0312 1.14282 9.71561C1.14282 9.40002 1.39866 9.14418 1.71425 9.14418C2.02984 9.14418 2.28568 9.40002 2.28568 9.71561Z" fill="url(#paint0_linear_897_4038)"/>
</g>
</g>
<defs>
<filter id="filter0_d_897_4038" x="1.14282" y="4.57275" width="8" height="6.71436" filterUnits="userSpaceOnUse" color-interpolation-filters="sRGB">
<feFlood flood-opacity="0" result="BackgroundImageFix"/>
<feColorMatrix in="SourceAlpha" type="matrix" values="0 0 0 0 0 0 0 0 0 0 0 0 0 0 0 0 0 0 127 0" result="hardAlpha"/>
<feOffset dy="1"/>
<feColorMatrix type="matrix" values="0 0 0 0 0 0 0 0 0 0 0 0 0 0 0 0 0 0 0.06 0"/>
<feBlend mode="normal" in2="BackgroundImageFix" result="effect1_dropShadow_897_4038"/>
<feBlend mode="normal" in="SourceGraphic" in2="effect1_dropShadow_897_4038" result="shape"/>
</filter>
<linearGradient id="paint0_linear_897_4038" x1="1.14282" y1="4.57275" x2="1.14282" y2="10.287" gradientUnits="userSpaceOnUse">
<stop stop-color="white"/>
<stop offset="1" stop-color="#F0F0F0"/>
</linearGradient>
</defs>
</svg>
