<svg width="24" height="24" viewBox="0 0 24 24" fill="none" xmlns="http://www.w3.org/2000/svg">
<rect y="3.42993" width="24" height="17.1429" rx="2" fill="white"/>
<mask id="mask0_897_4081" style="mask-type:luminance" maskUnits="userSpaceOnUse" x="0" y="3" width="24" height="18">
<rect y="3.42993" width="24" height="17.1429" rx="2" fill="white"/>
</mask>
<g mask="url(#mask0_897_4081)">
<path fill-rule="evenodd" clip-rule="evenodd" d="M0 8.00136H24V3.42993H0V8.00136Z" fill="#DD172C"/>
<path fill-rule="evenodd" clip-rule="evenodd" d="M0 20.5729H24V16.0015H0V20.5729Z" fill="#DD172C"/>
<path fill-rule="evenodd" clip-rule="evenodd" d="M0 16.0012H24V8.00122H0V16.0012Z" fill="#FFD133"/>
<path fill-rule="evenodd" clip-rule="evenodd" d="M6.28564 11.43H7.4285V12.0014H6.28564V11.43Z" fill="#FFEDB1"/>
<path d="M5.58171 11.192H6.98979C7.1848 11.192 7.33817 11.3587 7.32197 11.553L7.19133 13.1206C7.15209 13.5916 6.75837 13.9539 6.28575 13.9539C5.81313 13.9539 5.41941 13.5916 5.38016 13.1206L5.24953 11.553C5.23333 11.3587 5.3867 11.192 5.58171 11.192Z" stroke="#A41517" stroke-width="0.666667"/>
<path fill-rule="evenodd" clip-rule="evenodd" d="M5.14282 12.0015H7.42854V12.5729H6.85711L6.28568 13.7158L5.71425 12.5729H5.14282V12.0015Z" fill="#A41517"/>
<rect x="3.42847" y="10.2871" width="1.14286" height="4" rx="0.571429" fill="#A41517"/>
<rect x="8" y="10.2871" width="1.14286" height="4" rx="0.571428" fill="#A41517"/>
<path d="M5.14282 10.0586C5.14282 9.55363 5.55216 9.14429 6.05711 9.14429H6.51425C7.0192 9.14429 7.42854 9.55363 7.42854 10.0586V10.0586C7.42854 10.1848 7.3262 10.2871 7.19997 10.2871H5.37139C5.24516 10.2871 5.14282 10.1848 5.14282 10.0586V10.0586Z" fill="#A41517"/>
</g>
</svg>
